<?xml version="1.0" encoding="UTF-8"?>
<svg width="280px" height="386px" viewBox="0 0 280 386" version="1.1" xmlns="http://www.w3.org/2000/svg" xmlns:xlink="http://www.w3.org/1999/xlink">
    <!-- Generator: Sketch 54.1 (76490) - https://sketchapp.com -->
    <title>Logo</title>
    <desc>Created with Sketch.</desc>
    <g id="Page-2" stroke="none" stroke-width="1" fill="none" fill-rule="evenodd">
        <g id="Logo" transform="translate(-101.000000, -51.000000)">
            <g transform="translate(101.000000, 51.000000)">
                <path d="M155,66 L155,272 C155,274.209139 153.209139,276 151,276 L87,276 C84.790861,276 83,274.209139 83,272 L83,66 L4,66 C1.790861,66 2.705415e-16,64.209139 0,62 L0,4 C-2.705415e-16,1.790861 1.790861,4.05812251e-16 4,0 L181,0 L181,66 L155,66 Z" id="Combined-Shape" fill="#5ACCAE"></path>
                <polygon id="Rectangle" fill="#409476" points="181 0 280 30 280 96 181 66"></polygon>
                <path d="M224,137.391304 L224,208.391304 L276.811218,169.356926 C277.699486,168.70038 278.951806,168.888228 279.608352,169.776496 C279.862726,170.120649 280,170.537321 280,170.965278 L280,229.973731 C280,231.877046 279.096947,233.667474 277.566346,234.798787 L224,274.391304 L224,343.340179 C224,345.632837 222.877301,347.78018 220.994596,349.088501 L169.71197,384.72558 C168.35138,385.671075 166.481928,385.334574 165.536434,383.973984 C165.187183,383.471404 165,382.874029 165,382.262014 L165,181 L165,115 L280,30 L280,96 L224,137.391304 Z" id="Combined-Shape" fill="#8FFAED"></path>
            </g>
        </g>
    </g>
</svg>